# xmcd
#
# Track frame offsets: 
#        150
#        22148
#        39083
#        57294
#        74464
#        91337
#        105305
#        120998
#        135167
#        153772
#        173667
#        187935
#
# Disc length: 2766 seconds
#
# Revision: 0
# Processed by: cddbd v1.5.2PL0 Copyright (c) Steve Scherf et al.
# Submitted via: ExactAudioCopyFreeDBPlugin 1.0
#
DISCID=860acc0c
DTITLE=Little Big Town - The Reason Why
DYEAR=2010
DGENRE=Country
TTITLE0=The Reason Why
TTITLE1=Runaway Train
TTITLE2=Kiss Goodbye
TTITLE3=Shut Up Train
TTITLE4=Why , Oh Why
TTITLE5=Little White Church
TTITLE6=All The Way Down
TTITLE7=You Cant Have Everything
TTITLE8=All Over Again
TTITLE9=Rain On A Tin Roof
TTITLE10=Life Rolls On
TTITLE11=Lean Into It
EXTD=
EXTT0=
EXTT1=
EXTT2=
EXTT3=
EXTT4=
EXTT5=
EXTT6=
EXTT7=
EXTT8=
EXTT9=
EXTT10=
EXTT11=
PLAYORDER=
